<svg width="42" height="42" viewBox="0 0 42 42" fill="none" xmlns="http://www.w3.org/2000/svg">
<g id="g10">
<g id="g12">
<path id="path14" d="M41.2903 20.6452C41.2903 9.24318 32.0472 3.43323e-05 20.6452 3.43323e-05C9.24314 3.43323e-05 0 9.24318 0 20.6452C0 30.9498 7.54964 39.4908 17.4194 41.0396V26.6129H12.1774V20.6452H17.4194V16.0968C17.4194 10.9226 20.5015 8.06455 25.2173 8.06455C27.4761 8.06455 29.8387 8.46777 29.8387 8.46777V13.5484H27.2354C24.6708 13.5484 23.871 15.1398 23.871 16.7725V20.6452H29.5968L28.6814 26.6129H23.871V41.0396C33.7407 39.4908 41.2903 30.9498 41.2903 20.6452Z" fill="white"/>
</g>
</g>
</svg>
