<svg width="38" height="38" viewBox="0 0 38 38" fill="none" xmlns="http://www.w3.org/2000/svg">
<g id="Instagram svg" clip-path="url(#clip0_2_137)">
<path id="Vector" d="M11.7239 0.259587C9.74694 0.352862 8.39687 0.668362 7.21663 1.13213C5.99514 1.60817 4.95982 2.24697 3.92971 3.2808C2.8996 4.31463 2.26526 5.35068 1.79257 6.57403C1.33511 7.75688 1.02519 9.10806 0.937859 11.0862C0.85053 13.0643 0.831206 13.7001 0.840868 18.7458C0.85053 23.7916 0.872826 24.4241 0.968702 26.4063C1.06309 28.3829 1.37748 29.7326 1.84125 30.9132C2.31803 32.1347 2.95609 33.1696 3.99029 34.2001C5.02449 35.2306 6.0598 35.8635 7.28612 36.3369C8.46785 36.7936 9.81941 37.105 11.7971 37.1916C13.7749 37.2782 14.4114 37.2982 19.4557 37.2886C24.5 37.2789 25.1351 37.2566 27.1169 37.1626C29.0987 37.0686 30.4413 36.752 31.6223 36.2904C32.8438 35.8125 33.8795 35.1756 34.9092 34.141C35.939 33.1065 36.5729 32.0697 37.0452 30.8456C37.5031 29.6638 37.8141 28.3123 37.9 26.336C37.9865 24.3527 38.007 23.7195 37.9973 18.6745C37.9877 13.6295 37.965 12.997 37.871 11.0156C37.777 9.03411 37.4622 7.6885 36.9988 6.50714C36.5213 5.28565 35.884 4.25145 34.8501 3.22023C33.8163 2.189 32.7788 1.5554 31.555 1.0842C30.3726 0.626741 29.0218 0.314958 27.044 0.229487C25.0663 0.144016 24.4297 0.12209 19.3836 0.131752C14.3375 0.141414 13.7057 0.162968 11.7239 0.259587ZM11.9409 33.8489C10.1293 33.7702 9.14567 33.4692 8.49015 33.2172C7.62206 32.8827 7.0037 32.4784 6.3504 31.8315C5.6971 31.1845 5.29576 30.5639 4.95685 29.6976C4.7023 29.0421 4.39572 28.0596 4.31099 26.248C4.21883 24.2899 4.1995 23.702 4.18873 18.7414C4.17795 13.7807 4.1969 13.1936 4.28275 11.2348C4.36004 9.42468 4.66291 8.4399 4.91449 7.78475C5.24894 6.91555 5.65177 6.2983 6.30023 5.64537C6.9487 4.99245 7.56743 4.59036 8.4344 4.25145C9.08919 3.99578 10.0717 3.6918 11.8826 3.60559C13.8421 3.51269 14.4293 3.49411 19.3892 3.48333C24.3491 3.47255 24.9377 3.49113 26.898 3.57735C28.7081 3.65613 29.6933 3.95602 30.3477 4.20909C31.2161 4.54354 31.8341 4.94526 32.487 5.59483C33.14 6.24441 33.5424 6.86092 33.8813 7.72975C34.1374 8.38268 34.4414 9.36485 34.5268 11.1768C34.6201 13.1363 34.6413 13.7239 34.6502 18.6834C34.6591 23.643 34.6417 24.232 34.5558 26.19C34.4767 28.0016 34.1764 28.9856 33.9241 29.6419C33.5896 30.5096 33.1864 31.1284 32.5376 31.7809C31.8888 32.4335 31.2708 32.8355 30.4034 33.1745C29.7494 33.4298 28.7657 33.7345 26.9563 33.8207C24.9968 33.9129 24.4097 33.9322 19.4479 33.943C14.4861 33.9537 13.9008 33.9337 11.9413 33.8489M27.0883 8.77956C27.089 9.22058 27.2205 9.65147 27.4661 10.0177C27.7118 10.384 28.0605 10.6692 28.4683 10.8373C28.876 11.0053 29.3244 11.0487 29.7568 10.9619C30.1892 10.8751 30.5862 10.662 30.8974 10.3496C31.2087 10.0371 31.4203 9.63943 31.5056 9.20673C31.5908 8.77402 31.5458 8.32576 31.3762 7.91863C31.2067 7.51151 30.9202 7.16381 30.553 6.91951C30.1859 6.67521 29.7545 6.54528 29.3135 6.54616C28.7223 6.54735 28.1557 6.78329 27.7384 7.20211C27.3211 7.62093 27.0873 8.18834 27.0883 8.77956ZM9.87886 18.7288C9.88927 23.9982 14.1688 28.2603 19.4371 28.2502C24.7055 28.2402 28.9705 23.9611 28.9604 18.6916C28.9504 13.4221 24.6698 9.15897 19.4007 9.16938C14.1316 9.17978 9.86883 13.46 9.87886 18.7288ZM13.2256 18.7221C13.2232 17.4971 13.5841 16.2989 14.2626 15.279C14.9412 14.2591 15.9069 13.4633 17.0377 12.9923C18.1685 12.5213 19.4136 12.3962 20.6156 12.6328C21.8175 12.8694 22.9223 13.4571 23.7902 14.3216C24.6581 15.186 25.2502 16.2885 25.4915 17.4895C25.7329 18.6904 25.6127 19.936 25.1462 21.0687C24.6796 22.2014 23.8877 23.1702 22.8705 23.8528C21.8533 24.5354 20.6565 24.901 19.4315 24.9035C18.6182 24.9052 17.8124 24.7466 17.0603 24.4369C16.3082 24.1272 15.6244 23.6723 15.0481 23.0983C14.4719 22.5243 14.0143 21.8423 13.7016 21.0915C13.3889 20.3406 13.2271 19.5355 13.2256 18.7221Z" fill="white"/>
</g>
<defs>
<clipPath id="clip0_2_137">
<rect width="37.1613" height="37.1613" fill="white" transform="translate(0.838715 0.12915)"/>
</clipPath>
</defs>
</svg>
