<svg width="40" height="42" viewBox="0 0 40 42" fill="none" xmlns="http://www.w3.org/2000/svg">
<g id="WhatsApp svg" clip-path="url(#clip0_2_135)">
<path id="Vector" fill-rule="evenodd" clip-rule="evenodd" d="M33.962 5.99595C30.2751 2.13149 25.3716 0.0022048 20.1469 0.000244141C9.38104 0.000244141 0.619246 9.17126 0.6155 20.4441C0.613627 24.0478 1.51359 27.5652 3.22269 30.665L0.451614 41.2605L10.8054 38.4175C13.658 40.0468 16.8701 40.9046 20.1385 40.9056H20.1469C30.9109 40.9056 39.6737 31.7336 39.6774 20.4607C39.6793 14.9974 37.6499 9.86141 33.962 5.99693V5.99595ZM20.1469 37.4528H20.1404C17.2278 37.4519 14.3707 36.6323 11.8778 35.0844L11.2849 34.7158L5.14062 36.4029L6.78042 30.1317L6.39458 29.4886C4.76977 26.7829 3.911 23.6556 3.91288 20.4451C3.91663 11.076 11.1988 3.45297 20.1535 3.45297C24.4894 3.45493 28.5651 5.22444 31.6301 8.43699C34.6953 11.6486 36.3819 15.9189 36.3801 20.4588C36.3762 29.8289 29.0942 37.4519 20.1469 37.4519V37.4528ZM29.051 24.7262C28.5631 24.4703 26.1639 23.2351 25.7162 23.0645C25.2686 22.8939 24.9437 22.8087 24.6186 23.3204C24.2937 23.8322 23.3582 24.9831 23.0735 25.3232C22.7888 25.6643 22.504 25.7065 22.0161 25.4506C21.5283 25.1948 19.9559 24.6556 18.0914 22.9155C16.6408 21.5606 15.6611 19.8883 15.3765 19.3765C15.0918 18.8648 15.3465 18.5883 15.5899 18.3344C15.8091 18.105 16.0779 17.7374 16.3223 17.4394C16.5668 17.1413 16.6473 16.9277 16.8102 16.5874C16.9732 16.2463 16.8917 15.9483 16.77 15.6924C16.6482 15.4366 15.6724 12.9219 15.265 11.8995C14.8688 10.9035 14.4662 11.0388 14.1675 11.0221C13.8827 11.0074 13.5578 11.0045 13.2319 11.0045C12.906 11.0045 12.3778 11.1319 11.9302 11.6437C11.4826 12.1553 10.222 13.3915 10.222 15.9051C10.222 18.4187 11.9705 20.849 12.2149 21.1902C12.4593 21.5313 15.6564 26.6908 20.5515 28.9044C21.7156 29.4308 22.6249 29.7455 23.3338 29.9808C24.5026 30.37 25.5664 30.3151 26.4073 30.1837C27.3448 30.0367 29.2946 28.9475 29.701 27.7544C30.1074 26.5613 30.1074 25.5379 29.9857 25.3251C29.864 25.1124 29.5381 24.984 29.0502 24.7281L29.051 24.7262Z" fill="white"/>
</g>
<defs>
<clipPath id="clip0_2_135">
<rect width="39.2258" height="41.2903" fill="white" transform="translate(0.451614 0.000244141)"/>
</clipPath>
</defs>
</svg>
